<?xml version="1.0" encoding="UTF-8"?>
<svg width="32" height="32" viewBox="0 0 32 32" fill="none" xmlns="http://www.w3.org/2000/svg">
  <!-- Background circle -->
  <circle cx="16" cy="16" r="16" fill="#1E40AF"/>
  
  <!-- D and R letters -->
  <path d="M8 8H16C18.2091 8 20 9.79086 20 12V12C20 14.2091 18.2091 16 16 16H8V8Z" fill="white"/>
  <path d="M8 16H16L20 24H16L13 19H8V16Z" fill="white"/>
  
  <!-- Chat bubble -->
  <path d="M24 12C24 10.8954 23.1046 10 22 10C20.8954 10 20 10.8954 20 12C20 13.1046 20.8954 14 22 14V16L24 14C24 14 24 12.5 24 12Z" fill="#FCD34D"/>
</svg>
